<?xml version="1.0"?>
<svg xmlns="http://www.w3.org/2000/svg" viewBox="0 0 64 64" width="512" height="512"><g id="Layer_7" data-name="Layer 7"><path d="M62.71,31.29,57.37,26A11,11,0,1,0,42.05,10.63L32.71,1.29a1,1,0,0,0-1.42,0l-30,30a1,1,0,0,0-.21,1.09A1,1,0,0,0,2,33H7V57H6a1,1,0,0,0-1,1v4a1,1,0,0,0,1,1H58a1,1,0,0,0,1-1V58a1,1,0,0,0-1-1H57V33h5a1,1,0,0,0,.92-.62A1,1,0,0,0,62.71,31.29ZM51,8a9,9,0,1,1-9,9A9,9,0,0,1,51,8ZM32,3.41l9,9a10.81,10.81,0,0,0-.79,2.39L32.71,7.29a1,1,0,0,0-1.42,0L7.59,31H4.41ZM57,61H7V59H57ZM23.06,37H23a2,2,0,0,1,0-4v3A8.26,8.26,0,0,0,23.06,37ZM23,31V30a9,9,0,0,1,18,0v1H40a9.05,9.05,0,0,1-7.2-3.6,1,1,0,0,0-1.6,0A9.05,9.05,0,0,1,24,31Zm18,5V33a2,2,0,0,1,0,4h-.06A8.26,8.26,0,0,0,41,36ZM25,33a11,11,0,0,0,7-3.4A11,11,0,0,0,39,33v3a7,7,0,0,1-14,0Zm9.82,12a3,3,0,0,1-5.64,0ZM27.1,45a5,5,0,0,0,9.8,0H37a9,9,0,0,1,9,9v3H42V51H40v6H24V51H22v6H18V54a9,9,0,0,1,9-9ZM48,57V54A11,11,0,0,0,37.6,43a8.89,8.89,0,0,0,2.87-4H41a4,4,0,0,0,2-7.44V30a11,11,0,0,0-22,0v1.56A4,4,0,0,0,23,39h.53a8.89,8.89,0,0,0,2.87,4A11,11,0,0,0,16,54v3H9V32.41l23-23,8,8A11,11,0,0,0,50.56,28L55,32.41V57Zm8.41-26-3.22-3.22A10.81,10.81,0,0,0,55.58,27l4,4Z"/><path d="M50,22h.14a1,1,0,0,0,.73-.5l5-9-1.74-1-4.36,7.85-2.06-2.07-1.42,1.42,3,3A1,1,0,0,0,50,22Z"/></g></svg>
